<svg width="25" height="32" viewBox="0 0 25 32" fill="none" xmlns="http://www.w3.org/2000/svg">
<g clip-path="url(#clip0_9185_92606)">
<path d="M12.097 9.70386C18.7742 9.70386 24.1871 7.53158 24.1871 4.85193C24.1871 2.17228 18.7742 0 12.097 0C5.41978 0 0.00683594 2.17228 0.00683594 4.85193C0.00683594 7.53158 5.41978 9.70386 12.097 9.70386Z" fill="#008284"/>
<path d="M12.3706 26.152C8.50798 27.0743 4.52491 28.0307 1.98538 29.7137C0.715609 28.9256 0 28.0157 0 27.1468C0 23.3101 6.40904 21.8597 12.6046 20.4573C17.0693 19.4475 21.6271 18.4117 24.1803 16.3333V19.7156C24.1858 23.3183 18.1776 24.7619 12.3706 26.152Z" fill="#008284"/>
<path d="M12.1572 18.4526C7.45167 19.5158 2.64626 20.6049 0 22.8763V22.1278C0 15.4451 7.33126 13.7334 14.4231 12.0696C19.576 10.8669 22.0827 10.232 24.1871 8.54077V12.283C24.1858 15.7325 18.0709 17.1158 12.1572 18.4526Z" fill="#008284"/>
<path d="M24.1858 23.9135C21.6723 26.0316 17.2158 27.1084 12.851 28.151C9.72307 28.8995 6.52128 29.6684 4.25677 30.7836C6.3092 31.5184 8.99514 32 12.0957 32C19.1464 32 24.1858 29.4742 24.1858 27.1481V23.9135Z" fill="#008284"/>
</g>
<defs>
<clipPath id="clip0_9185_92606">
<rect width="24.1871" height="32" fill="white"/>
</clipPath>
</defs>
</svg>
