<svg width="169" height="32" viewBox="0 0 169 32" fill="none" xmlns="http://www.w3.org/2000/svg">
<path d="M27.7659 4.74628V22.9136H38.4336V19.3715H31.6414V8.58079C31.6414 6.49732 29.8912 4.74628 27.7659 4.74628ZM44.184 10.5404H40.4751V22.9154H44.1831L44.184 10.5404ZM70.9346 17.582C70.9346 18.7904 70.3929 19.9159 68.8513 19.9159C67.4345 19.9159 66.9346 18.8323 66.9346 17.6239V10.5395H63.2265V18.6656C63.2265 21.2909 64.8508 23.2487 67.5592 23.2487C68.8922 23.2487 70.2262 22.7077 71.1013 21.4575V22.9573H74.6009V10.5822H70.8927V17.582H70.9346ZM81.6022 10.5404H77.8941V22.9154H81.6022V10.5404ZM122.604 15.2473L121.604 15.0388C120.52 14.7892 120.062 14.5807 120.062 13.9552C120.062 13.3305 120.688 13.0801 121.437 13.0801C122.146 13.0801 122.854 13.2895 122.854 14.3303H126.604C126.397 11.5384 124.271 10.2472 121.437 10.2472C118.605 10.2472 116.271 11.664 116.271 14.2056C116.271 16.7471 118.188 17.5803 120.396 18.0392L121.604 18.2887C122.521 18.4981 123.021 18.7476 123.021 19.4142C123.021 20.1226 122.396 20.4559 121.479 20.4559C120.52 20.4559 119.771 20.0389 119.771 18.9143H115.896C116.062 21.9976 118.396 23.2478 121.604 23.2478C124.605 23.2478 126.897 21.8728 126.897 19.0809C126.855 16.6223 125.022 15.7891 122.604 15.2473ZM132.188 15.2473C132.646 14.0389 133.646 13.2467 135.105 13.2467C136.563 13.2467 137.604 13.9971 137.98 15.2473H132.188ZM141.604 16.5804C141.604 13.0382 139.147 10.2463 135.147 10.2463C131.313 10.2463 128.521 13.1639 128.521 16.7471C128.521 20.3311 131.147 23.2469 135.105 23.2469C138.397 23.2469 140.647 21.5395 141.397 18.9143H137.813C137.271 19.8304 136.438 20.2893 135.147 20.2893C133.479 20.2893 132.355 19.2476 132.062 17.7059H141.604V16.5804ZM106.603 20.1218C105.73 20.1202 104.894 19.7728 104.277 19.1559C103.66 18.5389 103.313 17.7025 103.311 16.83C103.313 15.9575 103.66 15.1213 104.277 14.5043C104.894 13.8874 105.73 13.54 106.603 13.5381C107.475 13.5397 108.312 13.8871 108.929 14.504C109.546 15.121 109.893 15.9574 109.895 16.83C109.853 18.663 108.395 20.1218 106.603 20.1218ZM110.019 11.2462C109.02 10.6215 107.853 10.2882 106.603 10.2882C102.978 10.2882 100.019 13.2458 100.019 16.8718C100.019 20.4969 102.978 23.4554 106.603 23.4554C107.853 23.4554 109.02 23.1222 110.019 22.4966V22.9547H113.562V10.5796H110.019V11.2462ZM91.7694 20.1226C90.8966 20.121 90.0602 19.7737 89.4433 19.1567C88.8265 18.5397 88.4789 17.7034 88.4773 16.8308C88.4795 15.9583 88.8265 15.1221 89.4433 14.5052C90.0607 13.8883 90.8966 13.5408 91.7694 13.539C92.6417 13.5406 93.4781 13.8879 94.0949 14.5049C94.7123 15.1219 95.0593 15.9583 95.061 16.8308C95.0593 17.7034 94.7123 18.5397 94.0949 19.1567C93.4781 19.7737 92.6417 20.121 91.7694 20.1226ZM92.1865 10.2899C90.8403 10.2093 89.5024 10.5437 88.3526 11.2479V6.58019C88.3531 6.11497 88.2615 5.65423 88.0839 5.22438C87.9057 4.79451 87.6447 4.40394 87.3159 4.07502C86.9871 3.74609 86.5964 3.48527 86.1661 3.30748C85.7363 3.12968 85.2756 3.0384 84.8105 3.03886V22.9145H88.3526V22.4565C89.3523 23.0812 90.5192 23.4144 91.7694 23.4144C95.5609 23.4144 98.6031 20.2064 98.3112 16.3737C98.1032 13.1229 95.4362 10.4985 92.1865 10.2899ZM42.3082 4.74628C42.023 4.74419 41.7402 4.79882 41.4763 4.90699C41.2124 5.01517 40.9727 5.17472 40.7711 5.37638C40.5694 5.57803 40.4098 5.81781 40.3016 6.08165C40.1935 6.34554 40.1389 6.6283 40.1409 6.91348C40.139 7.19861 40.1937 7.48126 40.3019 7.74504C40.4102 8.00882 40.5697 8.24843 40.7714 8.45003C40.973 8.65158 41.2127 8.81108 41.4765 8.91917C41.7404 9.0273 42.023 9.08192 42.3082 9.07983C42.5932 9.0817 42.8757 9.02692 43.1394 8.91872C43.4031 8.81048 43.6426 8.65097 43.8442 8.44943C44.0456 8.24794 44.2052 8.00838 44.3134 7.74471C44.4216 7.48104 44.4763 7.1985 44.4745 6.91348C44.4745 5.74614 43.5165 4.74628 42.3082 4.74628ZM79.7264 4.74628C79.4417 4.74431 79.1586 4.79902 78.8949 4.90725C78.6312 5.01547 78.3917 5.17504 78.1898 5.37669C77.9884 5.57836 77.829 5.81803 77.7209 6.08187C77.6127 6.3457 77.5581 6.62835 77.5603 6.91348C77.5581 7.1985 77.6127 7.4811 77.7209 7.74482C77.829 8.00854 77.989 8.24816 78.1904 8.4497C78.3917 8.65125 78.6317 8.81075 78.8949 8.91894C79.1586 9.02708 79.4417 9.08181 79.7264 9.07983C80.0116 9.08181 80.2941 9.02714 80.5578 8.91894C80.8215 8.81081 81.0615 8.6513 81.2629 8.44976C81.4649 8.24821 81.6243 8.00865 81.7324 7.74487C81.8406 7.48115 81.8958 7.19856 81.8935 6.91348C81.8935 5.74614 80.9346 4.74628 79.7264 4.74628ZM53.31 20.1226C52.4375 20.1208 51.6013 19.7734 50.9844 19.1565C50.3674 18.5395 50.02 17.7033 50.0182 16.8308C50.0198 15.9583 50.3671 15.1219 50.9841 14.5049C51.6011 13.8879 52.4374 13.5406 53.31 13.539C54.1825 13.5406 55.0189 13.8879 55.6359 14.5049C56.2527 15.1219 56.6003 15.9583 56.602 16.8308C56.6003 17.7034 56.2527 18.5397 55.6359 19.1567C55.0189 19.7737 54.1825 20.121 53.31 20.1226ZM56.6847 10.5395V11.2898C55.5299 10.5578 54.174 10.2078 52.8092 10.289C49.5174 10.4976 46.8502 13.1229 46.6426 16.3728C46.3931 20.2064 49.4345 23.4144 53.1843 23.4144C54.325 23.4064 55.4444 23.1051 56.4353 22.5394V27.7899C56.4375 28.7726 56.8287 29.7144 57.5239 30.4093C58.2185 31.1042 59.1603 31.4956 60.1429 31.4979V10.5404L56.6847 10.5395ZM9.72239 0.49649C15.2643 0.49649 19.1398 2.49619 19.1398 4.28824C19.1398 6.08027 15.2643 8.07999 9.72327 8.07999C4.18134 8.07999 0.304965 6.08027 0.304965 4.28824C0.305838 2.49619 4.13859 0.49649 9.72239 0.49649ZM9.93177 20.914C6.93221 21.6224 3.80705 22.3727 1.80648 23.7059C0.806636 23.0812 0.264832 22.3727 0.264832 21.7053C0.264832 18.7058 5.26494 17.5803 10.0984 16.4967C13.5987 15.7053 17.141 14.914 19.1407 13.2886V15.9139C19.1407 18.7058 14.4738 19.8312 9.93177 20.914ZM9.76597 14.914C6.09817 15.7472 2.34829 16.5804 0.264832 18.3725V17.7888C0.264832 12.5802 5.97337 11.2471 11.5153 9.9558C15.5155 8.99696 17.4743 8.53892 19.1407 7.2049V10.1224C19.1407 12.7887 14.3499 13.8723 9.76597 14.914ZM19.1407 19.1638C17.182 20.8302 13.6816 21.6643 10.3069 22.4556C7.84829 23.0402 5.34783 23.623 3.59766 24.4972C5.18119 25.0818 7.30562 25.4569 9.72327 25.4569C15.2233 25.4569 19.1407 23.4974 19.1407 21.6643V19.1638Z" fill="#008284"/>
<mask id="mask0_12414_102" style="mask-type:luminance" maskUnits="userSpaceOnUse" x="142" y="1" width="27" height="25">
<path d="M165.606 1.78821H144.938C143.511 1.78821 142.355 2.94486 142.355 4.37166V22.4558C142.355 23.8826 143.511 25.0392 144.938 25.0392H165.606C167.033 25.0392 168.189 23.8826 168.189 22.4558V4.37166C168.189 2.94486 167.033 1.78821 165.606 1.78821Z" fill="white"/>
</mask>
<g mask="url(#mask0_12414_102)">
<path d="M149.992 10.5259H146.283V22.9011H149.991L149.992 10.5259ZM148.116 4.7319C147.831 4.72981 147.548 4.78444 147.284 4.89261C147.021 5.00079 146.781 5.16034 146.579 5.362C146.377 5.56367 146.218 5.8034 146.11 6.06729C146.002 6.33118 145.947 6.61394 145.949 6.89912C145.947 7.1842 146.002 7.4669 146.11 7.73068C146.218 7.99446 146.378 8.23407 146.579 8.43567C146.781 8.63722 147.021 8.79672 147.284 8.9048C147.549 9.01294 147.831 9.06751 148.116 9.06547C148.401 9.06729 148.684 9.01256 148.947 8.90431C149.211 8.79611 149.45 8.63661 149.652 8.43507C149.854 8.23352 150.013 7.99396 150.121 7.73029C150.229 7.46663 150.284 7.18414 150.282 6.89912C150.282 5.73173 149.325 4.7319 148.116 4.7319Z" fill="#008284"/>
<path d="M165.536 16.8168C165.536 20.4241 162.612 23.3485 159.004 23.3485C155.397 23.3485 152.473 20.4241 152.473 16.8168C152.473 13.2095 155.397 10.2852 159.004 10.2852C162.612 10.2852 165.536 13.2095 165.536 16.8168ZM155.785 16.8168C155.785 18.5945 157.226 20.0356 159.004 20.0356C160.782 20.0356 162.223 18.5945 162.223 16.8168C162.223 15.0391 160.782 13.598 159.004 13.598C157.226 13.598 155.785 15.0391 155.785 16.8168Z" fill="#008284"/>
<path d="M143.648 22.901C144.362 22.901 144.941 22.322 144.941 21.6077C144.941 20.8934 144.362 20.3144 143.648 20.3144C142.934 20.3144 142.355 20.8934 142.355 21.6077C142.355 22.322 142.934 22.901 143.648 22.901Z" fill="#008284"/>
</g>
</svg>
