<svg width="306" height="58" viewBox="0 0 306 58" fill="none" xmlns="http://www.w3.org/2000/svg">
<path d="M50.8056 8.60264V41.531H70.1407V35.1108H57.8299V15.5527C57.8299 11.7764 54.6578 8.60264 50.8056 8.60264ZM80.5634 19.1044H73.8411V41.5342H80.5618L80.5634 19.1044ZM129.049 31.8674C129.049 34.0576 128.067 36.0975 125.273 36.0975C122.705 36.0975 121.799 34.1335 121.799 31.9433V19.1028H115.078V33.8315C115.078 38.5897 118.022 42.1383 122.931 42.1383C125.347 42.1383 127.765 41.1578 129.351 38.8918V41.6101H135.694V19.1803H128.973V31.8674H129.049ZM148.384 19.1044H141.663V41.5342H148.384V19.1044ZM222.7 27.6357L220.887 27.2578C218.923 26.8055 218.093 26.4276 218.093 25.2938C218.093 24.1615 219.227 23.7077 220.585 23.7077C221.869 23.7077 223.153 24.0872 223.153 25.9737H229.95C229.574 20.9134 225.722 18.573 220.585 18.573C215.451 18.573 211.221 21.1411 211.221 25.7476C211.221 30.3541 214.695 31.8643 218.697 32.696L220.887 33.1483C222.549 33.5278 223.455 33.9801 223.455 35.1882C223.455 36.4723 222.323 37.0764 220.661 37.0764C218.923 37.0764 217.565 36.3205 217.565 34.2821H210.541C210.843 39.8706 215.073 42.1367 220.887 42.1367C226.326 42.1367 230.48 39.6445 230.48 34.5842C230.404 30.1279 227.082 28.6178 222.7 27.6357ZM240.071 27.6357C240.901 25.4456 242.713 24.0097 245.357 24.0097C248 24.0097 249.888 25.3697 250.568 27.6357H240.071ZM257.138 30.052C257.138 23.6318 252.684 18.5715 245.433 18.5715C238.485 18.5715 233.424 23.8595 233.424 30.3541C233.424 36.8502 238.183 42.1351 245.357 42.1351C251.324 42.1351 255.402 39.0404 256.762 34.2821H250.266C249.284 35.9426 247.773 36.7743 245.433 36.7743C242.411 36.7743 240.373 34.8862 239.843 32.092H257.138V30.052ZM193.698 36.4707C192.116 36.4678 190.6 35.8382 189.482 34.72C188.364 33.6017 187.734 32.0858 187.731 30.5043C187.735 28.9229 188.364 27.4073 189.482 26.2891C190.601 25.1709 192.116 24.5412 193.698 24.5379C195.279 24.5408 196.795 25.1703 197.913 26.2886C199.032 27.4069 199.661 28.9228 199.664 30.5043C199.588 33.8267 196.946 36.4707 193.698 36.4707ZM199.89 20.3837C198.078 19.2514 195.964 18.6474 193.698 18.6474C187.127 18.6474 181.765 24.0081 181.765 30.5802C181.765 37.1507 187.127 42.513 193.698 42.513C195.964 42.513 198.078 41.909 199.89 40.7751V41.6054H206.311V19.1755H199.89V20.3837ZM166.812 36.4723C165.23 36.4694 163.714 35.8398 162.596 34.7215C161.478 33.6033 160.848 32.0874 160.845 30.5059C160.849 28.9245 161.478 27.4089 162.596 26.2907C163.715 25.1725 165.23 24.5428 166.812 24.5395C168.393 24.5424 169.909 25.1719 171.027 26.2902C172.146 27.4085 172.775 28.9244 172.778 30.5059C172.775 32.0874 172.146 33.6033 171.027 34.7215C169.909 35.8398 168.393 36.4694 166.812 36.4723ZM167.568 18.6505C165.128 18.5044 162.703 19.1104 160.619 20.3868V11.9266C160.62 11.0834 160.454 10.2483 160.132 9.46921C159.809 8.69007 159.336 7.98216 158.74 7.38599C158.144 6.78981 157.436 6.31707 156.656 5.99482C155.877 5.67256 155.042 5.50712 154.199 5.50795V41.5326H160.619V40.7024C162.431 41.8347 164.546 42.4387 166.812 42.4387C173.684 42.4387 179.198 36.6241 178.669 29.6773C178.292 23.7852 173.458 19.0285 167.568 18.6505ZM77.1635 8.60264C76.6466 8.59886 76.1341 8.69787 75.6558 8.89394C75.1775 9.09 74.743 9.37919 74.3775 9.74471C74.012 10.1102 73.7228 10.5448 73.5267 11.023C73.3307 11.5013 73.2316 12.0138 73.2354 12.5307C73.2318 13.0475 73.331 13.5598 73.5272 14.0379C73.7233 14.516 74.0126 14.9503 74.3781 15.3157C74.7435 15.681 75.178 15.9701 75.6562 16.166C76.1344 16.362 76.6467 16.461 77.1635 16.4572C77.6801 16.4606 78.1922 16.3613 78.6701 16.1652C79.148 15.969 79.5822 15.6799 79.9474 15.3146C80.3127 14.9494 80.6018 14.5152 80.7979 14.0373C80.9941 13.5594 81.0933 13.0473 81.09 12.5307C81.09 10.4149 79.3536 8.60264 77.1635 8.60264ZM144.984 8.60264C144.468 8.59907 143.955 8.69824 143.477 8.8944C142.999 9.09055 142.565 9.37978 142.199 9.74527C141.834 10.1108 141.545 10.5452 141.349 11.0234C141.153 11.5016 141.054 12.0139 141.058 12.5307C141.054 13.0473 141.153 13.5595 141.349 14.0375C141.545 14.5155 141.835 14.9498 142.2 15.3151C142.565 15.6804 142.999 15.9695 143.477 16.1656C143.955 16.3616 144.468 16.4608 144.984 16.4572C145.501 16.4608 146.013 16.3617 146.491 16.1656C146.969 15.9696 147.404 15.6805 147.769 15.3152C148.135 14.9499 148.424 14.5157 148.62 14.0376C148.816 13.5596 148.916 13.0474 148.912 12.5307C148.912 10.4149 147.174 8.60264 144.984 8.60264ZM97.1043 36.4723C95.5229 36.469 94.0073 35.8393 92.8891 34.7211C91.7709 33.6029 91.1412 32.0872 91.1378 30.5059C91.1408 28.9244 91.7703 27.4085 92.8886 26.2902C94.0069 25.1719 95.5228 24.5424 97.1043 24.5395C98.6858 24.5424 100.202 25.1719 101.32 26.2902C102.438 27.4085 103.068 28.9244 103.071 30.5059C103.068 32.0874 102.438 33.6033 101.32 34.7215C100.202 35.8398 98.6858 36.4694 97.1043 36.4723ZM103.221 19.1028V20.4627C101.128 19.1361 98.6703 18.5016 96.1966 18.6489C90.2302 19.0269 85.396 23.7852 85.0196 29.6757C84.5674 36.6241 90.0799 42.4387 96.8766 42.4387C98.9441 42.4242 100.973 41.878 102.769 40.8526V50.3692C102.773 52.1503 103.482 53.8574 104.742 55.1168C106.001 56.3763 107.708 57.0857 109.489 57.0899V19.1044L103.221 19.1028ZM18.1018 0.899902C28.1465 0.899902 35.1708 4.52435 35.1708 7.77244C35.1708 11.0205 28.1465 14.645 18.1033 14.645C8.05863 14.645 1.0327 11.0205 1.0327 7.77244C1.03428 4.52435 7.98114 0.899902 18.1018 0.899902ZM18.4813 37.9066C13.0446 39.1906 7.38023 40.5506 3.7542 42.9669C1.94198 41.8346 0.959961 40.5506 0.959961 39.3409C0.959961 33.9042 10.0227 31.8643 18.7833 29.9002C25.1277 28.4659 31.548 27.0317 35.1724 24.0856V28.8439C35.1724 33.9042 26.7138 35.9441 18.4813 37.9066ZM18.1808 27.0317C11.5328 28.5418 4.73622 30.052 0.959961 33.3001V32.2422C0.959961 22.8016 11.3067 20.3853 21.3514 18.0449C28.6019 16.307 32.152 15.4768 35.1724 13.0589V18.3469C35.1724 23.1795 26.4892 25.1435 18.1808 27.0317ZM35.1724 34.7344C31.6223 37.7548 25.2779 39.2665 19.1613 40.7008C14.705 41.7603 10.1729 42.8167 7.00071 44.4012C9.87085 45.4607 13.7214 46.1407 18.1033 46.1407C28.0722 46.1407 35.1724 42.589 35.1724 39.2665V34.7344Z" fill="white"/>
<g clip-path="url(#clip0_6283_5688)">
<path d="M272.341 19.0783H265.618V41.5082H272.339L272.341 19.0783ZM268.941 8.57661C268.424 8.57283 267.911 8.67184 267.433 8.8679C266.955 9.06397 266.52 9.35316 266.155 9.71867C265.789 10.0842 265.5 10.5187 265.304 10.997C265.108 11.4753 265.009 11.9878 265.013 12.5047C265.009 13.0214 265.108 13.5338 265.304 14.0119C265.5 14.49 265.79 14.9243 266.155 15.2897C266.521 15.655 266.955 15.9441 267.433 16.14C267.911 16.336 268.424 16.4349 268.941 16.4312C269.457 16.4345 269.969 16.3353 270.447 16.1391C270.925 15.943 271.359 15.6539 271.725 15.2886C272.09 14.9233 272.379 14.4891 272.575 14.0112C272.771 13.5333 272.87 13.0213 272.867 12.5047C272.867 10.3888 271.131 8.57661 268.941 8.57661Z" fill="white"/>
<path d="M300.514 30.4805C300.514 37.0188 295.214 42.3192 288.675 42.3192C282.137 42.3192 276.837 37.0188 276.837 30.4805C276.837 23.9422 282.137 18.6419 288.675 18.6419C295.214 18.6419 300.514 23.9422 300.514 30.4805ZM282.841 30.4805C282.841 33.7026 285.453 36.3145 288.675 36.3145C291.897 36.3145 294.509 33.7026 294.509 30.4805C294.509 27.2585 291.897 24.6465 288.675 24.6465C285.453 24.6465 282.841 27.2585 282.841 30.4805Z" fill="white"/>
<circle cx="260.842" cy="39.164" r="2.34418" fill="white"/>
</g>
<defs>
<clipPath id="clip0_6283_5688">
<rect x="258.498" y="3.24115" width="46.825" height="42.1425" rx="4.6825" fill="white"/>
</clipPath>
</defs>
</svg>
